<svg xmlns="http://www.w3.org/2000/svg" viewBox="0 0 100 100">
  <!-- Clam Bottom Shell -->
  <path d="M10,60 Q50,80 90,60 L90,70 Q50,100 10,70 Z" fill="#8d99ae" />
  
  <!-- Clam Top Shell -->
  <path d="M10,60 Q50,40 90,60 L90,50 Q50,20 10,50 Z" fill="#84a98c" />
  
  <!-- Clam Ridge Lines Bottom -->
  <path d="M20,65 Q50,80 80,65" fill="none" stroke="#718096" stroke-width="1" />
  <path d="M25,70 Q50,85 75,70" fill="none" stroke="#718096" stroke-width="1" />
  <path d="M30,75 Q50,90 70,75" fill="none" stroke="#718096" stroke-width="1" />
  
  <!-- Clam Ridge Lines Top -->
  <path d="M20,55 Q50,40 80,55" fill="none" stroke="#5a856b" stroke-width="1" />
  <path d="M25,50 Q50,35 75,50" fill="none" stroke="#5a856b" stroke-width="1" />
  <path d="M30,45 Q50,30 70,45" fill="none" stroke="#5a856b" stroke-width="1" />
  
  <!-- Clam Opening/Inside -->
  <ellipse cx="50" cy="60" rx="35" ry="5" fill="#fff1e6" />
  
  <!-- Clam Pearl -->
  <circle cx="50" cy="60" r="5" fill="#f1faee" />
  <circle cx="50" cy="60" r="5" fill="none" stroke="#e5e5e5" stroke-width="1" />
</svg>