<svg xmlns="http://www.w3.org/2000/svg" viewBox="0 0 200 200">
  <!-- Background elements - ocean plants and fish silhouettes -->
  <rect width="200" height="200" fill="#0fa3b1" opacity="0.7"/>
  
  <!-- Seaweed and coral shapes in the background -->
  <path d="M10,120 C20,100 5,80 20,60 C30,40 15,30 25,10" stroke="#095d67" fill="none" stroke-width="4"/>
  <path d="M40,130 C50,110 35,90 45,60 C55,40 40,30 50,10" stroke="#095d67" fill="none" stroke-width="3"/>
  <path d="M160,120 C150,100 165,80 155,60 C145,40 160,30 150,10" stroke="#095d67" fill="none" stroke-width="4"/>
  <path d="M180,130 C170,110 185,90 175,60 C165,40 180,30 170,10" stroke="#095d67" fill="none" stroke-width="3"/>
  
  <!-- Small fish silhouettes -->
  <path d="M70,30 L80,25 L80,35 Z" fill="#095d67"/>
  <path d="M120,45 L130,40 L130,50 Z" fill="#095d67"/>
  <path d="M150,70 L160,65 L160,75 Z" fill="#095d67"/>
  <path d="M40,50 L50,45 L50,55 Z" fill="#095d67"/>
  <path d="M90,20 L100,15 L100,25 Z" fill="#095d67"/>
  
  <!-- Bubbles -->
  <circle cx="60" cy="40" r="3" fill="#a5e1e9" opacity="0.7"/>
  <circle cx="100" cy="30" r="2" fill="#a5e1e9" opacity="0.7"/>
  <circle cx="140" cy="50" r="4" fill="#a5e1e9" opacity="0.7"/>
  <circle cx="30" cy="70" r="2" fill="#a5e1e9" opacity="0.7"/>
  <circle cx="170" cy="40" r="3" fill="#a5e1e9" opacity="0.7"/>
  
  <!-- Giant clam main body -->
  <path d="M60,100 C40,70 40,130 70,100 C90,80 120,80 140,100 C170,130 170,70 150,100 C140,80 120,60 100,80 C80,60 60,80 60,100 Z" fill="#0b8a95" stroke="#072e33" stroke-width="3"/>
  
  <!-- Clam details - ridges and texture -->
  <path d="M70,100 C75,90 85,85 100,90 C115,85 125,90 130,100" fill="none" stroke="#072e33" stroke-width="1.5"/>
  <path d="M75,110 C85,100 95,95 100,98 C105,95 115,100 125,110" fill="none" stroke="#072e33" stroke-width="1.5"/>
  <path d="M80,120 C90,110 95,105 100,108 C105,105 110,110 120,120" fill="none" stroke="#072e33" stroke-width="1.5"/>
  
  <!-- Clam opening border - white frilly edge -->
  <path d="M60,100 C70,90 80,85 100,90 C120,85 130,90 140,100 C130,110 120,115 100,110 C80,115 70,110 60,100 Z" fill="none" stroke="#ffefd6" stroke-width="5"/>
  
  <!-- Dots/spots on the clam -->
  <circle cx="80" cy="95" r="2" fill="#072e33"/>
  <circle cx="90" cy="90" r="2" fill="#072e33"/>
  <circle cx="110" cy="90" r="2" fill="#072e33"/>
  <circle cx="120" cy="95" r="2" fill="#072e33"/>
  <circle cx="75" cy="105" r="2" fill="#072e33"/>
  <circle cx="85" cy="100" r="2" fill="#072e33"/>
  <circle cx="95" cy="95" r="2" fill="#072e33"/>
  <circle cx="105" cy="95" r="2" fill="#072e33"/>
  <circle cx="115" cy="100" r="2" fill="#072e33"/>
  <circle cx="125" cy="105" r="2" fill="#072e33"/>
  <circle cx="80" cy="115" r="2" fill="#072e33"/>
  <circle cx="90" cy="110" r="2" fill="#072e33"/>
  <circle cx="100" cy="105" r="2" fill="#072e33"/>
  <circle cx="110" cy="110" r="2" fill="#072e33"/>
  <circle cx="120" cy="115" r="2" fill="#072e33"/>
</svg>